<svg id="Group_38465" data-name="Group 38465" xmlns="http://www.w3.org/2000/svg" xmlns:xlink="http://www.w3.org/1999/xlink" width="102" height="101.114" viewBox="0 0 102 101.114">
  <defs>
    <clipPath id="clip-path">
      <rect id="Rectangle_3699" data-name="Rectangle 3699" width="102" height="101.114" fill="none"/>
    </clipPath>
  </defs>
  <g id="Group_38464" data-name="Group 38464" clip-path="url(#clip-path)">
    <path id="Path_42878" data-name="Path 42878" d="M51,0c28.167,0,51,22.635,51,50.557s-22.834,50.557-51,50.557S0,78.478,0,50.557,22.834,0,51,0" fill="#0072cb"/>
    <path id="Path_42879" data-name="Path 42879" d="M80.891,40.75c-5.269,13.386-27.122,21.3-29.714,22.206h0c-2.591-.909-24.444-8.82-29.714-22.206a18.22,18.22,0,0,1-1.393-8.52,17.836,17.836,0,0,1,7.692-13.164A18.289,18.289,0,0,1,42.9,16.925a18.583,18.583,0,0,1,8.275,5.237,18.578,18.578,0,0,1,8.275-5.237,18.289,18.289,0,0,1,15.142,2.141A17.836,17.836,0,0,1,82.284,32.23a18.22,18.22,0,0,1-1.393,8.52" fill="#fff"/>
    <path id="Path_42880" data-name="Path 42880" d="M70.26,44.024h7.772a4.318,4.318,0,0,1,0,8.636H70.26v7.77a4.318,4.318,0,0,1-8.636,0V52.66Z" fill="#1becba"/>
    <path id="Path_42881" data-name="Path 42881" d="M61.465,52.664H53.693a4.318,4.318,0,0,1,0-8.636h7.772V36.256a4.317,4.317,0,0,1,8.635,0v7.772Z" fill="#0072cb"/>
    <path id="Path_42882" data-name="Path 42882" d="M29.067,38.828a5.621,5.621,0,0,0,4.377,1.154,2.306,2.306,0,0,0,1.147-.463,3.745,3.745,0,0,0,.865-2.58c.158-1.735-.024-2.25.463-3.108a1.919,1.919,0,0,1,1.034-.963,1.538,1.538,0,0,1,1.128.137c.526.267,1.115.915,1.575,3.27.356,1.82.128,2.06.376,3.771.24,1.643.617,4.234,2,4.743a1.893,1.893,0,0,0,1.849-.349c2.008-1.81.187-9.025.949-11.294a1.811,1.811,0,0,1,.839-1.135,1.1,1.1,0,0,1,.724-.026,2.083,2.083,0,0,1,1.14,1.168c1.1,2.287-.346,7.969,1.139,8.9a1.417,1.417,0,0,0,1.414-.145c1.255-.83.6-3.424,1.8-4.049a1.352,1.352,0,0,1,1-.05c1.047.31.971,1.634,2.143,2.319a2.093,2.093,0,0,0,1.724.228,2.8,2.8,0,0,0,1.278-1.3c.448-.792.388-1.322.727-1.447.183-.067.5-.023,1.049.6" fill="none" stroke="#0072cb" stroke-width="2"/>
    <path id="Path_42883" data-name="Path 42883" d="M32.519,67.489a3.34,3.34,0,0,0-1.49-.3h-2.64v7.644h1.254v-3.1h1.386A3.259,3.259,0,0,0,32.58,71.4a2.06,2.06,0,0,0,.88-.84,2.316,2.316,0,0,0,.275-1.1,2.243,2.243,0,0,0-.3-1.155,2.118,2.118,0,0,0-.913-.82M32.1,70.383a1.532,1.532,0,0,1-1.067.324H29.643v-2.5h1.386q1.419,0,1.419,1.254a1.19,1.19,0,0,1-.352.919" fill="#fff"/>
    <path id="Path_42884" data-name="Path 42884" d="M39.565,69.652a2.521,2.521,0,0,0-.853-.7,2.647,2.647,0,0,0-1.248-.281,2.766,2.766,0,0,0-2.481,1.486,3.347,3.347,0,0,0-.379,1.617,3.45,3.45,0,0,0,.379,1.633,2.851,2.851,0,0,0,1.029,1.122,2.818,2.818,0,0,0,2.684.116,2.516,2.516,0,0,0,.869-.716v.9h1.264v-6.06H39.565Zm-.259,3.239a1.8,1.8,0,0,1-.676.709,1.767,1.767,0,0,1-.9.242,1.747,1.747,0,0,1-.9-.247,1.821,1.821,0,0,1-.682-.721,2.257,2.257,0,0,1-.259-1.1,2.168,2.168,0,0,1,.259-1.084A1.8,1.8,0,0,1,38.63,70a1.82,1.82,0,0,1,.676.7,2.2,2.2,0,0,1,.259,1.089,2.233,2.233,0,0,1-.259,1.1" fill="#fff"/>
    <path id="Path_42885" data-name="Path 42885" d="M43.822,69.651v-.88H42.568v6.061h1.254V71.641a1.791,1.791,0,0,1,.379-1.3,1.529,1.529,0,0,1,1.117-.374h.319v-1.3a2.171,2.171,0,0,0-1.084.258,1.96,1.96,0,0,0-.731.721" fill="#fff"/>
    <path id="Path_42886" data-name="Path 42886" d="M47.518,66.362a.8.8,0,1,0,0,1.605.767.767,0,0,0,.561-.23.825.825,0,0,0,0-1.145.767.767,0,0,0-.561-.23" fill="#fff"/>
    <rect id="Rectangle_3698" data-name="Rectangle 3698" width="1.254" height="6.061" transform="translate(46.88 68.771)" fill="#fff"/>
    <path id="Path_42887" data-name="Path 42887" d="M52.215,73.71,50.5,68.772H49.157l2.3,6.06h1.5l2.31-6.06H53.931Z" fill="#fff"/>
    <path id="Path_42888" data-name="Path 42888" d="M60.839,69.652a2.521,2.521,0,0,0-.853-.7,2.647,2.647,0,0,0-1.248-.281,2.766,2.766,0,0,0-2.481,1.486,3.347,3.347,0,0,0-.379,1.617,3.45,3.45,0,0,0,.379,1.633,2.851,2.851,0,0,0,1.029,1.122,2.818,2.818,0,0,0,2.684.116,2.516,2.516,0,0,0,.869-.716v.9H62.1v-6.06H60.839Zm-.259,3.239a1.8,1.8,0,0,1-.676.709,1.767,1.767,0,0,1-.9.242,1.747,1.747,0,0,1-.9-.247,1.821,1.821,0,0,1-.682-.721,2.257,2.257,0,0,1-.259-1.1,2.168,2.168,0,0,1,.259-1.084A1.8,1.8,0,0,1,59.9,70a1.82,1.82,0,0,1,.676.7,2.2,2.2,0,0,1,.259,1.089,2.233,2.233,0,0,1-.259,1.1" fill="#fff"/>
    <path id="Path_42889" data-name="Path 42889" d="M68.385,69.652a2.521,2.521,0,0,0-.853-.7,2.647,2.647,0,0,0-1.248-.281A2.766,2.766,0,0,0,63.8,70.158a3.347,3.347,0,0,0-.379,1.617,3.45,3.45,0,0,0,.379,1.633,2.851,2.851,0,0,0,1.029,1.122,2.818,2.818,0,0,0,2.684.116,2.516,2.516,0,0,0,.869-.716v.9h1.264v-6.06H68.385Zm-.259,3.239a1.8,1.8,0,0,1-.676.709,1.767,1.767,0,0,1-.9.242,1.747,1.747,0,0,1-.9-.247,1.821,1.821,0,0,1-.682-.721,2.257,2.257,0,0,1-.259-1.1,2.168,2.168,0,0,1,.259-1.084A1.8,1.8,0,0,1,67.45,70a1.82,1.82,0,0,1,.676.7,2.2,2.2,0,0,1,.259,1.089,2.233,2.233,0,0,1-.259,1.1" fill="#fff"/>
    <path id="Path_42890" data-name="Path 42890" d="M73.373,68.931a1.96,1.96,0,0,0-.731.721v-.88H71.388v6.06h1.254v-3.19a1.791,1.791,0,0,1,.379-1.3,1.529,1.529,0,0,1,1.117-.374h.318v-1.3a2.167,2.167,0,0,0-1.083.259" fill="#fff"/>
    <path id="Path_42891" data-name="Path 42891" d="M40.517,81.058a2.662,2.662,0,0,1,1.353-.341,2.448,2.448,0,0,1,1.221.3,2.014,2.014,0,0,1,.825.9h1.507a3.417,3.417,0,0,0-1.381-1.7,4.17,4.17,0,0,0-4.135-.1,3.7,3.7,0,0,0-1.419,1.391,4.135,4.135,0,0,0,0,4.026A3.736,3.736,0,0,0,39.9,86.926a3.947,3.947,0,0,0,1.969.5,4.006,4.006,0,0,0,2.172-.6,3.377,3.377,0,0,0,1.381-1.693H43.916a2.014,2.014,0,0,1-.825.9,2.438,2.438,0,0,1-1.221.3,2.644,2.644,0,0,1-1.353-.345,2.423,2.423,0,0,1-.93-.985,3.459,3.459,0,0,1,0-2.97,2.383,2.383,0,0,1,.93-.979" fill="#fff"/>
    <path id="Path_42892" data-name="Path 42892" d="M51.517,82.181a2.512,2.512,0,0,0-.853-.7,2.647,2.647,0,0,0-1.248-.281,2.766,2.766,0,0,0-2.481,1.486,3.347,3.347,0,0,0-.379,1.617,3.45,3.45,0,0,0,.379,1.633,2.851,2.851,0,0,0,1.029,1.122,2.818,2.818,0,0,0,2.684.116,2.516,2.516,0,0,0,.869-.716v.9h1.264V81.3H51.517Zm-.259,3.238a1.8,1.8,0,0,1-.676.709,1.767,1.767,0,0,1-.9.242,1.747,1.747,0,0,1-.9-.247A1.821,1.821,0,0,1,48.1,85.4a2.257,2.257,0,0,1-.259-1.1,2.168,2.168,0,0,1,.259-1.084,1.8,1.8,0,0,1,2.481-.688,1.82,1.82,0,0,1,.676.7,2.2,2.2,0,0,1,.259,1.089,2.227,2.227,0,0,1-.259,1.1" fill="#fff"/>
    <path id="Path_42893" data-name="Path 42893" d="M55.774,82.18V81.3H54.52v6.061h1.254V84.17a1.791,1.791,0,0,1,.379-1.3A1.529,1.529,0,0,1,57.27,82.5h.319V81.2a2.171,2.171,0,0,0-1.084.258,1.96,1.96,0,0,0-.731.721" fill="#fff"/>
    <path id="Path_42894" data-name="Path 42894" d="M64.386,84.182a3.156,3.156,0,0,0-.374-1.556,2.648,2.648,0,0,0-1.045-1.051,3.09,3.09,0,0,0-1.529-.374,3.18,3.18,0,0,0-1.578.385,2.668,2.668,0,0,0-1.067,1.1,3.433,3.433,0,0,0-.38,1.644A3.351,3.351,0,0,0,58.8,85.97a2.783,2.783,0,0,0,1.078,1.1,3.1,3.1,0,0,0,1.556.39,2.929,2.929,0,0,0,1.788-.533,2.733,2.733,0,0,0,.995-1.37H62.868a1.467,1.467,0,0,1-1.43.847A1.671,1.671,0,0,1,59.711,84.8h4.631a3.952,3.952,0,0,0,.044-.616m-4.664-.4a1.725,1.725,0,0,1,.55-1.116,1.607,1.607,0,0,1,1.111-.412,1.761,1.761,0,0,1,1.2.418,1.422,1.422,0,0,1,.495,1.11Z" fill="#fff"/>
  </g>
</svg>
