     <svg xmlns="http://www.w3.org/2000/svg" xmlns:xlink="http://www.w3.org/1999/xlink"
                viewBox="0 0 409.19 408.51">
                <defs>
                    <style>
                       #leafe1 {
                            animation: leaf2 8s linear infinite;
                            transform-box: fill-box;
                            transform-origin: bottom;
                        }

                        #leafe2 {
                            animation: leaf2 8s linear infinite;
                            transform-box: fill-box;
                            transform-origin: bottom;
                        }

                        @keyframes leaf2 {
                            from {
                                transform: rotate(0deg);
                            }
 
                            25% {
                                transform: rotate(-15deg);
                            }
 
                            50%{
                                transform: rotate(0deg);
                            }
                            75%{
                                transform: rotate(10deg);
                            }
                            to{
                                transform:rotate(0deg);
                            }
                        }

                        .cls-1 {
                            fill: url(#linear-gradient);
                        }

                        .cls-2 {
                            fill: url(#linear-gradient-2);
                        }

                        .cls-3 {
                            fill: #fff;
                        }

                        .cls-4 {
                            fill: url(#linear-gradient-3);
                        }

                        .cls-5 {
                            fill: url(#linear-gradient-4);
                        }

                        .cls-6 {
                            fill: url(#linear-gradient-5);
                        }
                    </style>
                    <linearGradient id="linear-gradient" y1="204.26" x2="409.19" y2="204.26"
                        gradientUnits="userSpaceOnUse">
                        <stop offset="0" stop-color="#3aaa35" stop-opacity="0.4" />
                        <stop offset="1" stop-color="#063" stop-opacity="0.9" />
                    </linearGradient>
                    <linearGradient id="linear-gradient-2" x1="140.91" y1="238.14" x2="409.04" y2="238.14"
                        xlink:href="#linear-gradient" />
                    <linearGradient id="linear-gradient-3" x1="205.31" y1="200.44" x2="345.03" y2="200.44"
                        xlink:href="#linear-gradient" />
                    <linearGradient id="linear-gradient-4" x1="130.63" y1="205.48" x2="266.05" y2="205.48"
                        xlink:href="#linear-gradient" />
                    <linearGradient id="linear-gradient-5" x1="136.06" y1="215.41" x2="256.75" y2="215.41"
                        xlink:href="#linear-gradient" />
                </defs>
                <g id="Layer_2" data-name="Layer 2">
                    <g id="Layer_2-2" data-name="Layer 2">
                        <ellipse id="circle" class="cls-1" cx="204.59" cy="204.26" rx="204.59" ry="204.26" />
                        <path class="cls-2"
                            d="M246.89,404s50.56-7.07,96.54-49.66,58.81-96.24,58.81-96.24,7.3-30.3,6.77-48.65L260.67,72.28,140.91,322.73Z" />
                        <path class="cls-3"
                            d="M266,325.23A139.73,139.73,0,0,1,64.87,199.85c0-77.06,62.56-139.52,139.72-139.52s139.73,62.46,139.73,139.52a138.94,138.94,0,0,1-37.1,94.68l21.41,44.12L267.33,323Z" />
                        <path class="cls-4"
                            d="M205.31,340.75a138.64,138.64,0,0,0,61.36-14.22l1.37-2.27L329.35,340l-21.42-44.38A140.12,140.12,0,0,0,345,200.44c0-77.5-62.56-140.32-139.72-140.32Z" />
                        <path id="leafe2" class="cls-5"
                            d="M189.52,315.76S312.14,231.27,247,95.19c0,0-196.87,81.82-78.37,217,0,0,9.9-106.23,46.16-156.54C214.74,155.69,185.23,242.37,189.52,315.76Z" />
                        <path id="leafe1" class="cls-6"
                            d="M189.87,311.8S297,238,240.06,119c0,0-174.77,69.16-71.2,187.34,0,0,13.85-105.43,45.54-149.4C214.4,157,186.12,247.66,189.87,311.8Z" />
                    </g>
                </g>
            </svg>