  <svg xmlns="http://www.w3.org/2000/svg" xmlns:xlink="http://www.w3.org/1999/xlink"
                viewBox="0 0 138.27 165.68">
                <defs>
                    <style>
                        #leaf {
                            animation: leaf1 3s linear infinite alternate;
                            transform-box: fill-box;
                            transform-origin: bottom;
                        }

                        #leafs {
                            animation: leaf1 3s linear infinite alternate;
                            transform-box: fill-box;
                            transform-origin: bottom;
                        }

                        @keyframes leaf1 {
                            from {
                                transform: rotate(0deg);
                            }

                            to {
                                transform: rotate(-25deg);
                            }
                        }

                        #leaf1 {
                            animation: leaf2 1s linear infinite alternate;
                            transform-box: fill-box;
                            transform-origin: top;
                        }

                        @keyframes leaf2 {
                            from {
                                transform: rotateX(0deg);
                            }

                            to {
                                transform: rotateX(-30deg);
                            }
                        }

                        #leaf2 {
                            animation: leaf3 1s linear infinite alternate;
                            transform-box: fill-box;
                            transform-origin: top;
                        }

                        @keyframes leaf3 {
                            from {
                                transform: rotateZ(0deg);
                            }

                            to {
                                transform: rotateZ(25deg);
                            }
                        }

                        #leaf3 {
                            animation: leaf1 2s linear infinite alternate;
                            transform-box: fill-box;
                            transform-origin: top;
                        }

                        #leaf4 {
                            animation: leaf3 2s linear infinite alternate;
                            transform-box: fill-box;
                            transform-origin: bottom;
                        }

                        #leaf5 {
                            animation: leaf3 1s linear infinite alternate;
                            transform-box: fill-box;
                            transform-origin: bottom;
                        }

                        #leaf6 {
                            animation: leaf1 1s linear infinite alternate;
                            transform-box: fill-box;
                            transform-origin: bottom;
                        }

                        #leaf7 {
                            animation: leaf3 1s linear infinite alternate;
                            transform-box: fill-box;
                            transform-origin: bottom;
                        }

                        #leaf8 {
                            animation: leaf3 2s linear infinite alternate;
                            transform-box: fill-box;
                            transform-origin: top;
                        }

                        #leaf9 {
                            animation: leaf1 2s linear infinite alternate;
                            transform-box: fill-box;
                            transform-origin: bottom;
                        }

                        #leaf10 {
                            animation: leaf5 2s linear infinite alternate;
                            transform-box: fill-box;
                            transform-origin: right;
                        }

                        @keyframes leaf5 {
                            from {
                                transform: rotateY(-10deg);
                            }

                            to {
                                transform: rotateY(40deg);
                            }
                        }

                        #leaf11 {
                            animation: leaf1 1s linear infinite alternate;
                            transform-box: fill-box;
                            transform-origin: bottom;
                        }

                        #leaf12 {
                            animation: leaf3 3s linear infinite alternate;
                            transform-box: fill-box;
                            transform-origin: bottom;
                        }

                        #leaf13 {
                            animation: leaf1 2s linear infinite alternate;
                            transform-box: fill-box;
                            transform-origin: bottom;
                        }

                        #leaf14 {
                            animation: leaf1 3s linear infinite alternate;
                            transform-box: fill-box;
                            transform-origin: bottom;
                        }

                        #leaf15 {
                            animation: leaf3 2s linear infinite alternate;
                            transform-box: fill-box;
                            transform-origin: bottom;
                        }

                        #leaf16 {
                            animation: leaf1 3s linear infinite alternate;
                            transform-box: fill-box;
                            transform-origin: bottom;
                        }

                        #leaf17 {
                            animation: leaf1 3s linear infinite alternate;
                            transform-box: fill-box;
                            transform-origin: bottom;
                        }

                        #leaf18 {
                            animation: leaf3 2s linear infinite alternate;
                            transform-box: fill-box;
                            transform-origin: bottom;
                        }

                        #leaf19 {
                            animation: leaf1 2s linear infinite alternate;
                            transform-box: fill-box;
                            transform-origin: bottom;
                        }

                        #leaf20 {
                            animation: leaf3 1s linear infinite alternate;
                            transform-box: fill-box;
                            transform-origin: bottom;
                        }

                        #leaf21 {
                            animation: leaf1 2.5s linear infinite alternate;
                            transform-box: fill-box;
                            transform-origin: top;
                        }

                        #leaf22 {
                            animation: leaf1 2s linear infinite alternate;
                            transform-box: fill-box;
                            transform-origin: top;
                        }

                        #leaf23 {
                            animation: leaf1 2s linear infinite alternate;
                            transform-box: fill-box;
                            transform-origin: bottom;
                        }

                        #leaf24 {
                            animation: leaf1 2s linear infinite alternate;
                            transform-box: fill-box;
                            transform-origin: bottom;
                        }

                        #leaf25 {
                            animation: leaf3 2.3s linear infinite alternate;
                            transform-box: fill-box;
                            transform-origin: bottom;
                        }

                        #leaf26 {
                            animation: leaf3 3s linear infinite alternate;
                            transform-box: fill-box;
                            transform-origin: bottom;
                        }

                        #leaf27 {
                            animation: leaf1 2s linear infinite alternate;
                            transform-box: fill-box;
                            transform-origin: bottom;
                        }

                        #leaf28 {
                            animation: leaf1 1s linear infinite alternate;
                            transform-box: fill-box;
                            transform-origin: bottom;
                        }

                        #leaf29 {
                            animation: leaf1 1.8s linear infinite alternate;
                            transform-box: fill-box;
                            transform-origin: bottom;
                        }

                        #leaf30 {
                            animation: leaf3 2.6s linear infinite alternate;
                            transform-box: fill-box;
                            transform-origin: top;
                        }

                        #leaf31 {
                            animation: leaf3 3s linear infinite alternate;
                            transform-box: fill-box;
                            transform-origin: top;
                        }

                        #leaf32 {
                            animation: leaf1 2.1s linear infinite alternate;
                            transform-box: fill-box;
                            transform-origin: top;
                        }

                        #leaf33 {
                            animation: leaf1 1s linear alternate infinite;
                            transform-box: fill-box;
                            transform-origin: bottom;
                        }

                        /* transform-origin: center; */

                        .cls-1,
                        .cls-3 {
                            stroke: #fff;
                        }

                        .cls-1,
                        .cls-2,
                        .cls-3,
                        .cls-4 {
                            stroke-miterlimit: 10;
                            stroke-width: 0.25px;
                        }

                        .cls-1 {
                            fill: url(#radial-gradient);
                        }

                        .cls-2,
                        .cls-4 {
                            stroke: #b17f4a;
                        }

                        .cls-2 {
                            fill: url(#linear-gradient);
                        }

                        .cls-3 {
                            fill: url(#radial-gradient-2);
                        }

                        .cls-4 {
                            fill: url(#linear-gradient-2);
                        }

                        .cls-5 {
                            fill: url(#linear-gradient-3);
                        }

                        .cls-6 {
                            fill: url(#linear-gradient-4);
                        }

                        .cls-7 {
                            fill: url(#linear-gradient-5);
                        }

                        .cls-8 {
                            fill: url(#linear-gradient-6);
                        }

                        .cls-9 {
                            fill: url(#linear-gradient-7);
                        }

                        .cls-10 {
                            fill: url(#linear-gradient-8);
                        }

                        .cls-11 {
                            fill: url(#linear-gradient-9);
                        }

                        .cls-12 {
                            fill: url(#linear-gradient-10);
                        }

                        .cls-13 {
                            fill: url(#linear-gradient-11);
                        }

                        .cls-14 {
                            fill: url(#linear-gradient-12);
                        }

                        .cls-15 {
                            fill: url(#linear-gradient-13);
                        }

                        .cls-16 {
                            fill: url(#linear-gradient-14);
                        }

                        .cls-17 {
                            fill: url(#linear-gradient-15);
                        }

                        .cls-18 {
                            fill: url(#linear-gradient-16);
                        }

                        .cls-19 {
                            fill: url(#linear-gradient-17);
                        }

                        .cls-20 {
                            fill: url(#linear-gradient-18);
                        }

                        .cls-21 {
                            fill: url(#linear-gradient-19);
                        }

                        .cls-22 {
                            fill: url(#linear-gradient-20);
                        }

                        .cls-23 {
                            fill: url(#linear-gradient-21);
                        }

                        .cls-24 {
                            fill: url(#linear-gradient-22);
                        }

                        .cls-25 {
                            fill: url(#linear-gradient-23);
                        }

                        .cls-26 {
                            fill: url(#linear-gradient-24);
                        }

                        .cls-27 {
                            fill: url(#linear-gradient-25);
                        }

                        .cls-28 {
                            fill: url(#linear-gradient-26);
                        }

                        .cls-29 {
                            fill: url(#linear-gradient-27);
                        }

                        .cls-30 {
                            fill: url(#linear-gradient-28);
                        }

                        .cls-31 {
                            fill: url(#linear-gradient-29);
                        }

                        .cls-32 {
                            fill: url(#linear-gradient-30);
                        }

                        .cls-33 {
                            fill: url(#linear-gradient-31);
                        }

                        .cls-34 {
                            fill: url(#linear-gradient-32);
                        }

                        .cls-35 {
                            fill: url(#linear-gradient-33);
                        }

                        .cls-36 {
                            fill: url(#linear-gradient-34);
                        }

                        .cls-37 {
                            fill: url(#linear-gradient-35);
                        }

                        .cls-38 {
                            fill: url(#linear-gradient-36);
                        }

                        .cls-39 {
                            font-size: 10px;
                            fill: #fff;
                            font-family: LucidaConsole, Lucida Console;
                        }

                        .cls-40 {
                            fill: url(#linear-gradient-37);
                        }
                    </style>
                    <radialGradient id="radial-gradient" cx="69.18" cy="82.19" r="83.89" gradientUnits="userSpaceOnUse">
                        <stop offset="0" stop-color="#16401e" stop-opacity="0.4" />
                        <stop offset="0.51" stop-color="#07612d" stop-opacity="0.8" />
                        <stop offset="1" stop-color="#0b1710" stop-opacity="0.9" />
                    </radialGradient>
                    <linearGradient id="linear-gradient" x1="69.81" y1="61.66" x2="66.72" y2="122.96"
                        gradientUnits="userSpaceOnUse">
                        <stop offset="0" stop-color="#861911" stop-opacity="0.4" />
                        <stop offset="1" stop-color="#e64710" stop-opacity="0.9" />
                    </linearGradient>
                    <radialGradient id="radial-gradient-2" cx="69.13" cy="46.59" r="97.11"
                        xlink:href="#radial-gradient" />
                    <linearGradient id="linear-gradient-2" x1="46.9" y1="45.05" x2="88.78" y2="45.05"
                        xlink:href="#linear-gradient" />
                    <linearGradient id="linear-gradient-3" x1="84.34" y1="34.5" x2="92.34" y2="34.5"
                        gradientUnits="userSpaceOnUse">
                        <stop offset="0" stop-color="#3aaa35" stop-opacity="0.4" />
                        <stop offset="1" stop-color="#063" stop-opacity="0.9" />
                    </linearGradient>
                    <linearGradient id="linear-gradient-4" x1="92.27" y1="44.1" x2="96.92" y2="44.1"
                        xlink:href="#linear-gradient-3" />
                    <linearGradient id="linear-gradient-5" x1="75.27" y1="50.12" x2="81.02" y2="50.12"
                        xlink:href="#linear-gradient-3" />
                    <linearGradient id="linear-gradient-6" x1="83" y1="50.92" x2="87.42" y2="50.92"
                        xlink:href="#linear-gradient-3" />
                    <linearGradient id="linear-gradient-7" x1="88.87" y1="48.51" x2="93.2" y2="48.51"
                        xlink:href="#linear-gradient-3" />
                    <linearGradient id="linear-gradient-8" x1="83.22" y1="40.8" x2="87.87" y2="40.8"
                        xlink:href="#linear-gradient-3" />
                    <linearGradient id="linear-gradient-9" x1="75.42" y1="38.09" x2="80.02" y2="38.09"
                        xlink:href="#linear-gradient-3" />
                    <linearGradient id="linear-gradient-10" x1="71.53" y1="40.92" x2="75.44" y2="40.92"
                        xlink:href="#linear-gradient-3" />
                    <linearGradient id="linear-gradient-11" x1="68.19" y1="34.89" x2="72.65" y2="34.89"
                        xlink:href="#linear-gradient-3" />
                    <linearGradient id="linear-gradient-12" x1="74.81" y1="32.26" x2="79.16" y2="32.26"
                        xlink:href="#linear-gradient-3" />
                    <linearGradient id="linear-gradient-13" x1="79.75" y1="30.46" x2="84.22" y2="30.46"
                        xlink:href="#linear-gradient-3" />
                    <linearGradient id="linear-gradient-14" x1="77.9" y1="24.72" x2="82.67" y2="24.72"
                        xlink:href="#linear-gradient-3" />
                    <linearGradient id="linear-gradient-15" x1="85.21" y1="20.68" x2="88.47" y2="20.68"
                        xlink:href="#linear-gradient-3" />
                    <linearGradient id="linear-gradient-16" x1="79.57" y1="18.01" x2="83.91" y2="18.01"
                        xlink:href="#linear-gradient-3" />
                    <linearGradient id="linear-gradient-17" x1="64.46" y1="15.35" x2="70" y2="15.35"
                        xlink:href="#linear-gradient-3" />
                    <linearGradient id="linear-gradient-18" x1="58.01" y1="15.84" x2="63.13" y2="15.84"
                        xlink:href="#linear-gradient-3" />
                    <linearGradient id="linear-gradient-19" x1="72.22" y1="20.76" x2="77.87" y2="20.76"
                        xlink:href="#linear-gradient-3" />
                    <linearGradient id="linear-gradient-20" x1="87.81" y1="27.99" x2="91.15" y2="27.99"
                        xlink:href="#linear-gradient-3" />
                    <linearGradient id="linear-gradient-21" x1="88.92" y1="43.52" x2="91.89" y2="43.52"
                        xlink:href="#linear-gradient-3" />
                    <linearGradient id="linear-gradient-22" x1="67.91" y1="24.2" x2="71.6" y2="24.2"
                        xlink:href="#linear-gradient-3" />
                    <linearGradient id="linear-gradient-23" x1="71.54" y1="12.9" x2="74.82" y2="12.9"
                        xlink:href="#linear-gradient-3" />
                    <linearGradient id="linear-gradient-24" x1="59.12" y1="29.22" x2="62.85" y2="29.22"
                        xlink:href="#linear-gradient-3" />
                    <linearGradient id="linear-gradient-25" x1="52.87" y1="11.64" x2="56.58" y2="11.64"
                        xlink:href="#linear-gradient-3" />
                    <linearGradient id="linear-gradient-26" x1="50.28" y1="19.83" x2="58.19" y2="19.83"
                        xlink:href="#linear-gradient-3" />
                    <linearGradient id="linear-gradient-27" x1="45.56" y1="24.5" x2="51.24" y2="24.5"
                        xlink:href="#linear-gradient-3" />
                    <linearGradient id="linear-gradient-28" x1="43.17" y1="27.92" x2="41.33" y2="33.86"
                        xlink:href="#linear-gradient-3" />
                    <linearGradient id="linear-gradient-29" x1="53.62" y1="37.76" x2="57.3" y2="37.76"
                        xlink:href="#linear-gradient-3" />
                    <linearGradient id="linear-gradient-30" x1="48.92" y1="36.65" x2="52.16" y2="36.65"
                        xlink:href="#linear-gradient-3" />
                    <linearGradient id="linear-gradient-31" x1="48.09" y1="41.48" x2="51.14" y2="41.48"
                        xlink:href="#linear-gradient-3" />
                    <linearGradient id="linear-gradient-32" x1="43.97" y1="39.98" x2="47.86" y2="39.98"
                        xlink:href="#linear-gradient-3" />
                    <linearGradient id="linear-gradient-33" x1="42" y1="46.49" x2="46.77" y2="46.49"
                        xlink:href="#linear-gradient-3" />
                    <linearGradient id="linear-gradient-34" x1="48.78" y1="48.41" x2="52.59" y2="48.41"
                        xlink:href="#linear-gradient-3" />
                    <linearGradient id="linear-gradient-35" x1="53.3" y1="48.58" x2="57.75" y2="48.58"
                        xlink:href="#linear-gradient-3" />
                    <linearGradient id="linear-gradient-36" x1="105.9" y1="158.41" x2="111.55" y2="158.41"
                        xlink:href="#linear-gradient-3" />
                    <linearGradient id="linear-gradient-37" x1="106.13" y1="158.82" x2="111.17" y2="158.82"
                        xlink:href="#linear-gradient-3" />
                </defs>
                <g id="Layer_2" data-name="Layer 2">
                    <g id="tree">
                        <path class="cls-1" d="M.22,79.49a68.77,68.77,0,0,0,137.53,0Z" />
                        <path class="cls-2"
                            d="M72.87,79.54s-.11,8.83,9.34,13c.14.25,9.45,2.59,14.11.28,0,0-.47,3-11,2.45,0,0,7.75,5,16.61,4.13,0,0-1.55,2.31-10.21.79,0,0,4.7,2.74,5.67,7.59,0,0-2-4-9.6-7s-12.73-6.24-14.12-8.27c0,0-3.93,4.07-1.41,7.79s10.24,5.34,10.24,5.34-3.1,1.66-10.4-1.89c0,0-.34,5.61,2.51,8.92,0,0-4.31-1.42-6.25-9.8S70,89,70,89l-2.43-3.5s-5.7,9-11.18,11c0,0,4.45,8.18-.2,16.26,0,0-2.51,4.26-3.23,4.71,0,0,2.35-8.27,1.66-11.37,0,0-6.7,3.21-9.69,2.14,0,0,9-4.43,9.33-5.9,0,0-1-3.73-2.38-4.52,0,0-10.93,2.57-12.82,9.23a8.45,8.45,0,0,1,.95-6.29s-4.57-.51-6.23.71c0,0-.14-2.46,7.08-2.55,0,0,8.33-3.52,9-3.58,0,0-7.33-.42-9.76-3.75,0,0,10.07,2.39,13.86,1a21.6,21.6,0,0,0,8.27-13.07Z" />
                        <path class="cls-3" d="M.12,69.13a69,69,0,0,1,138,0Z" />
                        <path class="cls-4"
                            d="M71.3,69.07a27.24,27.24,0,0,1-2-8.33,29,29,0,0,1,.2-7.28c.34-2.93,3.21-7.77,10.89-7.26s8.34-.71,8.34-.71a4.49,4.49,0,0,1-3.39-.42,16.35,16.35,0,0,0-4.84-1.17c2.37-1.88,2.19-7.31,2.19-7.31-1.53,5.86-12.48,9.33-12.48,9.33-.34-3.84-3.64-8.42-3.64-8.42a19.31,19.31,0,0,1,.74-6.34c2.93.62,5.8-1.34,6.71-1.94s4-2.07,4-2.07c-1.31-.29-2,.11-5.52.79s-5.29-.34-5.29-.34c.12-4.44-2.16-6-2.16-6,.8,6.14-.11,6.37-.74,8.25a22.48,22.48,0,0,0-.45,5.8,25.81,25.81,0,0,0-7.4-3.58c-.51-1.48.85-3.48.85-3.48,3.3-5.4,1.6-7.79,1.6-7.79s.39,4-2.17,5.69-2.9,5.18-2.9,5.18c-5.69-.29-6.94,2-6.94,2,7.57-1.08,11.84,2.22,11.84,2.22,7,4.26,7.34,10.81,7.34,10.81a18.26,18.26,0,0,0-9.68-6.26c-3.69-.74-4.95-1.94-4.95-1.94s.46,1.43,3.76,2.74,3,2.44,3,2.44c-1.19-.28-4,.57-4,.57-2.1,1.08-6.71-.57-6.71-.57,4,4,8.65.85,12.86,3.13s4.15,7.91,4.15,7.91c.52,4.21-.83,10.31-2,14.4C62.45,69.38,71.37,69.22,71.3,69.07Z" />
                        <path id="leaf26" class="cls-5"
                            d="M84.34,37.09s.89-5.93,8-6.1c0,0,.81,8.53-7.38,6.78,0,0,4.22-2.3,5.54-4.52A23.59,23.59,0,0,1,84.34,37.09Z" />
                        <path id="leaf29" class="cls-6"
                            d="M92.27,45.52a4.4,4.4,0,0,1,4.64-3.4s.39,4.87-4.3,3.8a10.38,10.38,0,0,0,3.23-2.53A13.48,13.48,0,0,1,92.27,45.52Z" />
                        <path id="leaf32" class="cls-7"
                            d="M75.27,48.29s.59,4.05,5.72,4.25c0,0,.69-5.8-5.28-4.7,0,0,3,1.61,4,3.14A17.21,17.21,0,0,0,75.27,48.29Z" />
                        <path id="leaf31" class="cls-8"
                            d="M83,49.48s.45,3.2,4.4,3.35c0,0,.52-4.57-4.06-3.71a10.1,10.1,0,0,1,3,2.48A13.13,13.13,0,0,0,83,49.48Z" />
                        <path id="leaf30" class="cls-9"
                            d="M88.87,47.15s.44,3,4.31,3.17c0,0,.52-4.32-4-3.51a10.07,10.07,0,0,1,3,2.34A13.2,13.2,0,0,0,88.87,47.15Z" />
                        <path id="leaf27" class="cls-10"
                            d="M83.22,42.26a4.44,4.44,0,0,1,4.65-3.47s.38,5-4.31,3.87a10.56,10.56,0,0,0,3.23-2.57A13.67,13.67,0,0,1,83.22,42.26Z" />
                        <path id="leaf25" class="cls-11"
                            d="M80,39.36a4.31,4.31,0,0,0-4.6-3.21s0,5.09,4.32,3.64a10,10,0,0,1-3.21-2.39A12.64,12.64,0,0,0,80,39.36Z" />
                        <path id="leaf24" class="cls-12"
                            d="M71.53,42.72a4.29,4.29,0,0,1,3.83-4s.9,5.07-3.48,4.42a9.92,9.92,0,0,0,2.65-3A12.29,12.29,0,0,1,71.53,42.72Z" />
                        <path id="leaf23" class="cls-13"
                            d="M68.19,36.22a4.29,4.29,0,0,1,4.46-3.33s0,5.15-4.18,3.77a9.83,9.83,0,0,0,3.11-2.49A12.05,12.05,0,0,1,68.19,36.22Z" />
                        <path id="leaf22" class="cls-14"
                            d="M74.84,29.58a5.3,5.3,0,0,0,3.87,5.72s2.25-5.75-3.35-6.08c0,0,2.24,2.39,2.64,4.17A15.72,15.72,0,0,0,74.84,29.58Z" />
                        <path id="leaf21" class="cls-15"
                            d="M79.75,28.07A5.14,5.14,0,0,0,84,33.25s1.66-5.77-3.76-5.57c0,0,2.36,2.1,2.9,3.79A15,15,0,0,0,79.75,28.07Z" />
                        <path id="leaf19" class="cls-16"
                            d="M77.9,25.89s1.08-3.63,4.77-3.13c0,0-.46,5.4-4.53,3.61A10.22,10.22,0,0,0,81.49,24,12.65,12.65,0,0,1,77.9,25.89Z" />
                        <path id="leaf20" class="cls-17"
                            d="M85.54,23.42s-1.49-3.82,1.86-5.74c0,0,3.15,5-1.35,6a10.76,10.76,0,0,0,1.2-4.16A12.94,12.94,0,0,1,85.54,23.42Z" />
                        <path id="leaf18" class="cls-18"
                            d="M80.43,20.46s3.89-1.06,3.44-4.91c0,0-5.77.4-4,4.66a10.83,10.83,0,0,1,2.58-3.45A12.91,12.91,0,0,0,80.43,20.46Z" />
                        <path id="leaf14" class="cls-19"
                            d="M67.11,19.76a7.77,7.77,0,0,0,2.85-5,6.2,6.2,0,0,0-.81-3.88s-8.2,3.83-2.92,8.78a11.41,11.41,0,0,1,.31-3.57A9,9,0,0,1,67.61,14,15.77,15.77,0,0,0,67.11,19.76Z" />
                        <path id="leaf12" class="cls-20"
                            d="M59.25,20.36A8.1,8.1,0,0,1,58.1,14.9,6.88,6.88,0,0,1,60,11.23s6.84,5.08.39,9.22a19,19,0,0,0,.37-3.65,6.66,6.66,0,0,0-.16-2.11A22.17,22.17,0,0,1,59.25,20.36Z" />
                        <path id="leaf17" class="cls-21"
                            d="M74.68,25.37s5.11-3.53,2.39-9.21c0,0-8.22,3.42-3.27,9.06,0,0,.41-4.43,1.93-6.53A20.85,20.85,0,0,0,74.68,25.37Z" />
                        <path id="leaf33" class="cls-22"
                            d="M87.85,30.23a4.29,4.29,0,0,1,2.85-4.78s2,4.74-2.42,5.07A9.93,9.93,0,0,0,90.21,27,12.19,12.19,0,0,1,87.85,30.23Z" />
                        <path id="leaf28" class="cls-23"
                            d="M89.06,44.94s2,.17,2.83-2.68c0,0-2.55-1.09-3,2.37a7.67,7.67,0,0,1,2-1.83A10.6,10.6,0,0,0,89.06,44.94Z" />
                        <path id="leaf15" class="cls-24"
                            d="M68,26.16a2.6,2.6,0,0,1,.94-2.9,17.83,17.83,0,0,1,2-1.45s1.15,1.92.3,3.37a2.42,2.42,0,0,1-2.69,1.37,13.88,13.88,0,0,0,2-2.73S68.55,26.08,68,26.16Z" />
                        <path id="leaf16" class="cls-25"
                            d="M74.44,15.36a3,3,0,0,0-.2-3.24,15.35,15.35,0,0,0-1.53-1.95s-1.54,1.76-1.09,3.47,1.49,2,2.2,2a14.81,14.81,0,0,1-1.23-3.29S74,15.16,74.44,15.36Z" />
                        <path id="leaf13" class="cls-26"
                            d="M62.19,32.21a2.84,2.84,0,0,0,.61-2.33,6.72,6.72,0,0,0-2.07-3.74c-1.39.53-3.12,5.44.78,6.17a12,12,0,0,1-.85-4.06A11.88,11.88,0,0,0,62.19,32.21Z" />
                        <path id="leaf11" class="cls-27"
                            d="M56,14.44a3.48,3.48,0,0,0-.15-4.06L54.47,8.62s-1.9,1.78-1.56,3.52a3.23,3.23,0,0,0,2.28,2.52s-1.06-2.23-.74-3.51C54.45,11.15,55.45,14.07,56,14.44Z" />
                        <path id="leaf10" class="cls-28"
                            d="M58.19,22.08a6,6,0,0,0-3-4.29c-2.91-1.85-4.78-1.46-4.78-1.46A6.41,6.41,0,0,0,51,20.38a6.1,6.1,0,0,0,4.37,3,2.84,2.84,0,0,0,2.1-.46S53.39,21,52.69,19.17C52.69,19.17,56.72,22.16,58.19,22.08Z" />
                        <path id="leaf9" class="cls-29"
                            d="M51.08,28a5.49,5.49,0,0,0-1.28-5c-2.09-2.16-2.67-2.05-2.94-2.56,0,0-2.16,2.65-.91,5.52a4.22,4.22,0,0,0,4.18,2.56s-2.62-3.07-2.55-4.68C47.58,23.86,50.05,27.61,51.08,28Z" />
                        <path id="leaf8" class="cls-30"
                            d="M44.57,29.09s-4.32-1.36-5.58,4c0,0-.12.77-.15,1a6.37,6.37,0,0,0,5.79-2.84,2.59,2.59,0,0,0,.44-1.41A10.73,10.73,0,0,0,41.27,32,8.49,8.49,0,0,1,44.57,29.09Z" />
                        <path id="leaf7" class="cls-31"
                            d="M54,39.32a2.59,2.59,0,0,0,3-1.36,3.3,3.3,0,0,0,.33-1.83s-3.27.06-3.64,2.61a6.91,6.91,0,0,0,2.47-1.38A10.66,10.66,0,0,1,54,39.32Z" />
                        <path id="leaf6" class="cls-32"
                            d="M52.08,38.57c.27-1.51-.08-2.59-2.46-4.37,0,0-1.91,2.63.57,4.37a4.65,4.65,0,0,0,1.32.52,9.08,9.08,0,0,1-1.21-2.37A8.56,8.56,0,0,0,52.08,38.57Z" />
                        <path id="leaf5" class="cls-33"
                            d="M48.91,43.42s1.86.17,2.16-1.43a3.06,3.06,0,0,0-.43-2.46,5.63,5.63,0,0,0-2.32,2c-.58,1.18.09,1.65.09,1.65S49.83,42,50,41.35C50,41.35,49.52,43.13,48.91,43.42Z" />
                        <path id="leaf4" class="cls-34"
                            d="M47.21,42.86a3.32,3.32,0,0,0,.2-3.54c-1.11-1.73-1.13-1.24-1.75-2.45,0,0-1.92,1.55-1.67,3.45s2.49,2.77,2.49,2.77-1.23-2.7-1-3.58C45.47,39.51,46.4,42.39,47.21,42.86Z" />
                        <path id="leaf3" class="cls-35"
                            d="M46.23,44.74a2.85,2.85,0,0,0-2.94.57,3.09,3.09,0,0,0-1.25,3c.32.44,4.5-.52,4.73-3.07a9.3,9.3,0,0,0-2.83,1.49A5.7,5.7,0,0,1,46.23,44.74Z" />
                        <path id="leaf2" class="cls-36"
                            d="M48.94,46c-.22.32-.76,3.42,3,5.15,0,0,1.61-2.74-.12-4.35s-2.3-1-2.3-1,1.64,1.58,1.66,2.74C51.15,48.55,49.8,46.11,48.94,46Z" />
                        <path id="leaf1" class="cls-37"
                            d="M57.28,46.72a3.28,3.28,0,0,0-2.9.81,3.08,3.08,0,0,0-1,3s3.83.27,4.39-3.29a16.24,16.24,0,0,0-2.58,1.63A11.51,11.51,0,0,1,57.28,46.72Z" />
                        <path id="leafs" class="cls-38"
                            d="M108.36,163s5.12-3.53,2.4-9.21c0,0-8.22,3.42-3.28,9.07,0,0,.42-4.44,1.93-6.54A20.92,20.92,0,0,0,108.36,163Z" />
                        <text class="cls-39" transform="translate(27.19 162.7)">Hidden leafe</text>
                        <path id="leaf" class="cls-40"
                            d="M108.37,162.85s4.48-3.09,2.1-8c0,0-7.3,2.89-3,7.82,0,0,.57-4.4,1.9-6.24A23,23,0,0,0,108.37,162.85Z" />
                    </g>
                </g>
            </svg>